<?xml version="1.0" standalone="no"?>
<!DOCTYPE svg PUBLIC "-//W3C//DTD SVG 20010904//EN"
 "http://www.w3.org/TR/2001/REC-SVG-20010904/DTD/svg10.dtd">
<svg version="1.0" xmlns="http://www.w3.org/2000/svg"
 width="100.000000pt" height="100.000000pt" viewBox="0 0 100.000000 100.000000"
 preserveAspectRatio="xMidYMid meet">
<metadata>
Created by potrace 1.14, written by Peter Selinger 2001-2017
</metadata>
<g transform="translate(0.000000,100.000000) scale(0.100000,-0.100000)"
fill="#000000" stroke="none">
<path d="M375 941 c-209 -60 -347 -257 -332 -471 9 -123 48 -208 134 -293 85
-86 170 -124 293 -134 351 -26 597 344 440 662 -33 69 -112 154 -178 192 -102
60 -243 77 -357 44z m273 -49 c169 -65 275 -226 268 -404 -5 -108 -22 -158
-82 -239 -133 -182 -402 -220 -586 -84 -173 127 -217 381 -98 564 52 81 131
141 227 171 75 24 196 20 271 -8z"/>
<path d="M443 764 c-38 -19 -63 -67 -63 -123 0 -34 -3 -41 -20 -41 -11 0 -29
-9 -40 -20 -18 -18 -20 -33 -20 -140 0 -166 -8 -160 204 -160 205 0 196 -8
196 162 0 105 -2 120 -20 138 -11 11 -29 20 -40 20 -17 0 -20 7 -20 41 0 57
-25 104 -65 123 -41 20 -71 20 -112 0z m107 -42 c16 -13 24 -32 28 -70 l5 -52
-82 0 -81 0 0 45 c0 80 73 123 130 77z m105 -282 l0 -115 -155 0 -155 0 -3
104 c-1 58 0 111 2 118 4 11 38 13 158 11 l153 -3 0 -115z"/>
<path d="M472 488 c-14 -14 -15 -32 -3 -56 5 -9 12 -25 15 -34 3 -10 10 -18
16 -18 6 0 13 8 16 18 3 9 11 27 17 40 20 41 -29 82 -61 50z"/>
</g>
</svg>
